<svg width="46" height="50" viewBox="0 0 46 50" fill="none" xmlns="http://www.w3.org/2000/svg">
<path d="M45.8997 28.3159C45.8997 39.9748 36.2601 49.4262 24.369 49.4262C12.478 49.4262 2.8384 39.9748 2.8384 28.3159C2.8384 16.6569 12.478 7.2055 24.369 7.2055C36.2601 7.2055 45.8997 16.6569 45.8997 28.3159Z" fill="#FFE259"/>
<path d="M24.0894 16.6337C24.0894 17.2802 24.0787 18.1316 24.0571 19.1876C24.0571 20.2221 24.0356 21.3536 23.9924 22.5821C23.9709 23.789 23.9386 24.9959 23.8955 26.2028C23.8524 27.3882 23.8093 28.455 23.7662 29.4033C23.6368 29.4896 23.4752 29.565 23.2812 29.6296C23.1088 29.6943 22.9148 29.7266 22.6993 29.7266C22.3976 29.7266 22.1497 29.662 21.9558 29.5327C21.7618 29.4033 21.654 29.1986 21.6325 28.9184C21.5894 28.2934 21.5463 27.4313 21.5032 26.3322C21.4601 25.233 21.4277 24.0369 21.4062 22.7437C21.3846 21.429 21.3631 20.1467 21.3415 18.8967C21.3415 17.6466 21.3415 16.569 21.3415 15.6638C21.7941 15.3837 22.2791 15.2436 22.7963 15.2436C23.2058 15.2436 23.5183 15.3621 23.7338 15.5992C23.9709 15.8147 24.0894 16.1595 24.0894 16.6337ZM20.9213 33.994C20.9213 33.4767 21.0829 33.0457 21.4062 32.7008C21.7295 32.356 22.1713 32.1836 22.7316 32.1836C23.292 32.1836 23.7338 32.356 24.0571 32.7008C24.3804 33.0457 24.542 33.4767 24.542 33.994C24.542 34.5112 24.3804 34.9423 24.0571 35.2871C23.7338 35.6319 23.292 35.8043 22.7316 35.8043C22.1713 35.8043 21.7295 35.6319 21.4062 35.2871C21.0829 34.9423 20.9213 34.5112 20.9213 33.994Z" fill="#565050"/>
<path d="M22.8186 4.49023C34.6633 4.49044 44.2519 13.9341 44.2522 25.5674C44.2522 37.2009 34.6634 46.6453 22.8186 46.6455C10.9736 46.6455 1.38501 37.201 1.38501 25.5674C1.38526 13.934 10.9738 4.49023 22.8186 4.49023Z" stroke="#565050" stroke-width="0.969848"/>
</svg>
