<svg width="128" height="128" viewBox="0 0 128 128" fill="none" xmlns="http://www.w3.org/2000/svg">
<rect width="128" height="128" fill="white" style="fill:white;fill-opacity:1;"/>
<path d="M21.2 56.64C20.4533 56.9333 19.6667 56.88 18.84 56.48C18.04 56.1067 17.3467 55.5067 16.76 54.68C16.6533 54.52 16.52 54.2667 16.36 53.92C16.2267 53.6 16.0933 53.2667 15.96 52.92C15.8533 52.5733 15.7867 52.2667 15.76 52C15.7333 51.7333 15.76 51.5733 15.84 51.52C15.92 51.44 16.0533 51.4133 16.24 51.44C16.4267 51.4667 16.6 51.5333 16.76 51.64C16.9467 51.7467 17.0667 51.88 17.12 52.04C17.2 52.2267 17.32 52.4667 17.48 52.76C17.6667 53.0533 17.8667 53.32 18.08 53.56C18.2933 53.8 18.4533 53.9333 18.56 53.96C19.0667 54.2 19.44 54.3067 19.68 54.28C19.92 54.2533 20.1333 54.1733 20.32 54.04C20.7733 53.6933 21.1467 53.24 21.44 52.68C21.7333 52.12 22.0667 51.2533 22.44 50.08C22.7333 49.0933 23.0267 48.0533 23.32 46.96C23.64 45.84 23.92 44.9733 24.16 44.36C24.24 44.04 24.3333 43.7733 24.44 43.56C24.5733 43.32 24.6933 43.1467 24.8 43.04H25.04C24.4533 43.4133 23.9333 43.84 23.48 44.32C23.0267 44.8 22.4533 45.1867 21.76 45.48C21.6 45.6667 21.2 45.7867 20.56 45.84C19.9467 45.8667 19.3467 45.7867 18.76 45.6C18.3867 45.3867 18.1067 45.2267 17.92 45.12C17.76 45.0133 17.6267 44.8667 17.52 44.68C17.44 44.4933 17.32 44.2 17.16 43.8C16.9733 43.4 16.9467 42.7467 17.08 41.84C17.2133 40.9333 17.4533 40.0267 17.8 39.12C18.12 38.4533 18.5867 37.7333 19.2 36.96C19.8133 36.1867 20.4667 35.4933 21.16 34.88C21.8533 34.24 22.48 33.84 23.04 33.68C23.2533 33.5733 23.48 33.5067 23.72 33.48C23.9867 33.4267 24.36 33.4667 24.84 33.6C25.2933 33.6533 25.64 33.76 25.88 33.92C26.12 34.0533 26.5067 34.3467 27.04 34.8C27.3867 35.1467 27.6667 35.4933 27.88 35.84C28.12 36.1867 28.3067 36.5467 28.44 36.92C28.6267 37.32 28.6933 37.6933 28.64 38.04C28.6133 38.36 28.4667 38.6933 28.2 39.04C27.96 39.3867 27.7067 39.7333 27.44 40.08C27.1733 40.4267 26.9733 40.9067 26.84 41.52C26.7067 42.32 26.4933 43.2267 26.2 44.24C25.9067 45.2267 25.6533 46.1467 25.44 47L24.8 49.48C24.1333 51.7467 23.4933 53.4267 22.88 54.52C22.2933 55.64 21.7333 56.3467 21.2 56.64ZM19.76 43.84C20.2933 43.8133 20.8 43.7067 21.28 43.52C21.76 43.3333 22.2267 43.0267 22.68 42.6C23.1333 42.1467 23.5867 41.5733 24.04 40.88C24.4933 40.24 24.8133 39.5733 25 38.88C25.1867 38.16 25.2533 37.4667 25.2 36.8C25.1733 36.3733 25.1067 36.0933 25 35.96C24.8933 35.8267 24.6667 35.7867 24.32 35.84C23.8133 35.92 23.2533 36.2 22.64 36.68C22.0267 37.1333 21.4533 37.7067 20.92 38.4C20.52 38.9333 20.1867 39.5733 19.92 40.32C19.6533 41.12 19.4933 41.88 19.44 42.6C19.3867 43.32 19.4933 43.7333 19.76 43.84ZM43.8188 47.76C43.1521 48.08 42.5521 48.1733 42.0188 48.04C41.4854 47.88 41.0588 47.52 40.7388 46.96C40.4454 46.4 40.2988 45.6933 40.2988 44.84C40.2988 44.5467 40.3388 44.1067 40.4188 43.52C40.5254 42.9333 40.6454 42.32 40.7788 41.68C40.9121 41.0133 41.0588 40.44 41.2188 39.96C41.2988 39.72 41.3521 39.5333 41.3788 39.4C41.4321 39.2667 41.4054 39.2 41.2988 39.2C41.1921 39.2 41.0588 39.2667 40.8988 39.4C40.7654 39.5333 40.6588 39.64 40.5788 39.72C39.9921 40.2 39.3788 40.7867 38.7388 41.48C38.1254 42.1733 37.5521 42.88 37.0188 43.6C36.4854 44.2933 36.0454 44.9333 35.6988 45.52C35.3788 46.1067 35.2188 46.5333 35.2188 46.8C35.2188 47.2 35.0188 47.48 34.6188 47.64C34.2188 47.8 33.8721 47.7867 33.5788 47.6C33.0721 47.3067 32.7521 46.96 32.6188 46.56C32.5121 46.1333 32.4988 45.4267 32.5788 44.44C32.6588 43.1867 32.7654 42.0667 32.8988 41.08C33.0321 40.0933 33.2454 39.0267 33.5388 37.88C33.8588 36.7067 34.2721 35.28 34.7788 33.6C35.1254 32.6667 35.4454 31.7867 35.7388 30.96C36.0321 30.1067 36.2854 29.3867 36.4988 28.8C36.7388 28.2133 36.8854 27.8533 36.9388 27.72C37.0721 27.5867 37.2454 27.2667 37.4588 26.76C37.6721 26.2267 37.8588 25.6933 38.0188 25.16C38.2054 24.6267 38.2988 24.3067 38.2988 24.2C38.2988 23.9867 38.3388 23.8 38.4188 23.64C38.4988 23.4533 38.5921 23.3067 38.6988 23.2C38.8054 23.0933 38.8988 23 38.9787 22.92C39.0588 22.84 39.0988 22.8 39.0988 22.8C39.2321 22.8 39.3921 22.84 39.5788 22.92C39.7921 23 39.9921 23.12 40.1788 23.28C40.3654 23.4133 40.4854 23.5867 40.5388 23.8C40.7254 24.1733 40.8188 24.56 40.8188 24.96C40.8188 25.3333 40.6988 25.8 40.4588 26.36C40.2454 26.92 39.8721 27.6933 39.3388 28.68C38.9121 29.5067 38.5254 30.36 38.1788 31.24C37.8321 32.12 37.4988 33.04 37.1788 34C37.0454 34.4 36.8588 34.96 36.6188 35.68C36.4054 36.4 36.1788 37.1467 35.9388 37.92C35.7254 38.6933 35.5388 39.3867 35.3788 40C35.2454 40.5867 35.1788 40.96 35.1788 41.12C35.1788 41.3067 35.2854 41.4 35.4988 41.4C35.7121 41.3733 35.9254 41.2133 36.1388 40.92C36.2454 40.7067 36.4721 40.44 36.8188 40.12C37.1654 39.8 37.4454 39.5467 37.6588 39.36C37.8721 39.1733 38.1654 38.9067 38.5388 38.56C38.9121 38.2133 39.3121 37.8667 39.7388 37.52C40.1654 37.1467 40.5654 36.84 40.9388 36.6C41.3121 36.3333 41.6054 36.2 41.8188 36.2C42.1654 36.2 42.4854 36.3333 42.7788 36.6C43.0721 36.84 43.2721 37.1067 43.3788 37.4C43.4588 37.48 43.5388 37.5867 43.6188 37.72C43.6988 37.8267 43.7521 37.9067 43.7788 37.96C43.9121 38.0667 43.9121 38.5333 43.7788 39.36C43.6721 40.16 43.4054 41.2 42.9788 42.48C42.7388 43.4667 42.5388 44.3067 42.3788 45C42.2454 45.6667 42.2854 46 42.4988 46C42.4988 46 42.6321 45.92 42.8988 45.76C43.1921 45.6 43.4988 45.4267 43.8188 45.24C44.5921 44.7333 45.2588 44.44 45.8188 44.36C46.4054 44.2533 46.6988 44.3467 46.6988 44.64C46.6988 44.7467 46.6588 44.8533 46.5788 44.96C46.4988 45.04 46.4588 45.1333 46.4588 45.24C46.4588 45.24 46.4588 45.2533 46.4588 45.28C46.4588 45.28 46.4588 45.3333 46.4588 45.44C46.4588 45.4933 46.2854 45.7067 45.9388 46.08C45.5921 46.4267 45.2054 46.7867 44.7788 47.16C44.3788 47.5067 44.0588 47.7067 43.8188 47.76ZM51.3828 46.96C51.3828 46.7467 51.3561 46.5467 51.3028 46.36C51.2495 46.1733 51.2761 46.0267 51.3828 45.92L51.7028 46C51.5961 46.0267 51.4361 46.04 51.2228 46.04C51.0095 46.0133 50.8095 45.9733 50.6228 45.92C50.4628 45.84 50.3695 45.7733 50.3428 45.72C50.3695 45.2667 50.3961 44.92 50.4228 44.68C50.4761 44.44 50.5428 44.24 50.6228 44.08C50.6228 43.84 50.7028 43.5333 50.8628 43.16C51.0228 42.7867 51.1561 42.4 51.2628 42C51.3695 41.5467 51.5028 40.8667 51.6628 39.96C51.8495 39.0533 52.1161 38.1867 52.4628 37.36C52.6761 36.6667 52.9428 35.8 53.2628 34.76C53.5828 33.6933 53.8895 32.8133 54.1828 32.12C54.5028 30.8933 54.7961 29.9067 55.0628 29.16C55.3561 28.3867 55.6495 27.6933 55.9428 27.08C56.2628 26.44 56.6095 25.72 56.9828 24.92C57.0895 24.7067 57.1961 24.44 57.3028 24.12C57.4095 23.7733 57.5028 23.48 57.5828 23.24C57.6361 23.0267 57.8361 22.88 58.1828 22.8C58.5561 22.6933 58.9028 22.8 59.2228 23.12C59.5161 23.4133 59.6761 23.6667 59.7028 23.88C59.7295 24.0933 59.6361 24.4533 59.4228 24.96C59.2361 25.44 58.9161 26.24 58.4628 27.36C58.2761 27.6267 58.0628 28.08 57.8228 28.72C57.6095 29.3333 57.4095 29.88 57.2228 30.36C56.8228 31.2933 56.5028 32.0933 56.2628 32.76C56.0228 33.4267 55.7961 34.1067 55.5828 34.8C55.3961 35.5467 55.1695 36.3867 54.9028 37.32C54.6628 38.2533 54.4095 39.1333 54.1428 39.96L53.5028 40.16C53.6895 39.92 53.9161 39.64 54.1828 39.32C54.4761 39 54.7428 38.7067 54.9828 38.44C55.2495 38.1733 55.4228 38 55.5028 37.92C56.2228 37.3067 57.0228 36.7467 57.9028 36.24C58.7828 35.7067 59.6095 35.3067 60.3828 35.04C61.1828 34.7733 61.7828 34.72 62.1828 34.88C62.5028 34.9867 62.9028 35.2667 63.3828 35.72C63.8628 36.1733 64.1428 36.6 64.2228 37C64.4361 37.4267 64.4761 37.9333 64.3428 38.52C64.2095 39.08 63.8895 39.8267 63.3828 40.76C62.9295 41.5867 62.4095 42.3867 61.8228 43.16C61.2361 43.9067 60.6761 44.5333 60.1428 45.04C59.9561 45.1467 59.7161 45.3333 59.4228 45.6C59.1561 45.84 58.9161 46.08 58.7028 46.32C58.1428 46.8267 57.4761 47.2267 56.7028 47.52C55.9561 47.8133 55.2095 48 54.4628 48.08C53.7161 48.1333 53.0628 48.0667 52.5028 47.88C51.9428 47.6933 51.5695 47.3867 51.3828 46.96ZM51.9828 45.88C52.1161 45.9067 52.2495 45.9333 52.3828 45.96C52.5161 45.96 52.6628 45.96 52.8228 45.96C53.4095 45.88 53.9028 45.8 54.3028 45.72C54.7295 45.6133 55.1428 45.48 55.5428 45.32C55.9428 45.1333 56.3828 44.8933 56.8628 44.6C57.5561 44.0667 58.1828 43.5467 58.7428 43.04C59.3295 42.5067 59.8761 41.92 60.3828 41.28C60.8361 40.6933 61.2361 40 61.5828 39.2C61.9561 38.4 62.1428 37.7733 62.1428 37.32C62.1428 37.08 62.0761 36.96 61.9428 36.96C61.8895 36.96 61.6495 37.04 61.2228 37.2C60.7961 37.3333 60.3561 37.5067 59.9028 37.72C59.4761 37.9067 59.1961 38.0667 59.0628 38.2C59.0628 38.3067 58.9828 38.4 58.8228 38.48C58.6628 38.5333 58.5828 38.56 58.5828 38.56C57.7561 39.1733 57.1028 39.7067 56.6228 40.16C56.1428 40.5867 55.7428 41 55.4228 41.4C55.2361 41.6667 55.0761 41.8933 54.9428 42.08C54.8095 42.24 54.6761 42.4133 54.5428 42.6C54.4361 42.7867 54.2761 43.0267 54.0628 43.32C53.8761 43.6133 53.6228 44.0133 53.3028 44.52C53.1161 44.8667 52.8761 45.2 52.5828 45.52C52.3161 45.84 52.1161 46.0267 51.9828 46.08V45.88ZM77.2456 49.76C76.899 49.84 76.6056 49.7867 76.3656 49.6C76.1523 49.44 75.9923 49.2 75.8856 48.88C75.6723 48.2667 75.5123 47.6 75.4056 46.88C75.3256 46.1333 75.3123 45.48 75.3656 44.92L75.4456 44.08L73.8856 45.32C72.979 46.12 72.099 46.6933 71.2456 47.04C70.419 47.3867 69.6856 47.56 69.0456 47.56C68.7523 47.5067 68.459 47.4 68.1656 47.24C67.8723 47.08 67.6056 46.88 67.3656 46.64C67.1523 46.4 66.979 46.1467 66.8456 45.88C66.6856 45.5067 66.6323 45 66.6856 44.36C66.7656 43.72 66.9256 43.0267 67.1656 42.28C67.4323 41.5067 67.7523 40.76 68.1256 40.04C68.5256 39.2933 68.979 38.64 69.4856 38.08C70.3656 36.7467 71.3123 35.9333 72.3256 35.64C73.339 35.3467 74.339 35.4933 75.3256 36.08C76.019 36.3733 76.4456 36.5067 76.6056 36.48C76.7923 36.4533 76.9523 36.1467 77.0856 35.56C77.1923 35.1333 77.299 34.7067 77.4056 34.28C77.5123 33.8267 77.6856 33.2267 77.9256 32.48C78.5923 30.4533 79.1656 28.8667 79.6456 27.72C80.1523 26.5733 80.6056 25.5733 81.0056 24.72C81.299 24.1067 81.539 23.7333 81.7256 23.6C81.939 23.44 82.1523 23.3733 82.3656 23.4C82.659 23.4 82.9256 23.5067 83.1656 23.72C83.4056 23.9333 83.5923 24.2267 83.7256 24.6C83.8323 24.84 83.8723 25.0533 83.8456 25.24C83.8456 25.4 83.7656 25.6267 83.6056 25.92C83.259 26.56 82.8456 27.4133 82.3656 28.48C81.9123 29.52 81.4456 30.6667 80.9656 31.92C80.5123 33.1733 80.0856 34.4133 79.6856 35.64C79.2856 36.8667 78.9523 37.9467 78.6856 38.88C78.5256 39.4667 78.379 40.2133 78.2456 41.12C78.139 42.0267 78.0456 42.96 77.9656 43.92C77.8856 44.8533 77.8323 45.6933 77.8056 46.44C77.8056 47.16 77.8323 47.6267 77.8856 47.84C78.0456 48.3733 78.1123 48.7733 78.0856 49.04C78.0856 49.3067 78.019 49.48 77.8856 49.56C77.7523 49.6667 77.539 49.7333 77.2456 49.76ZM70.4856 45.32C70.859 45.24 71.219 45.0933 71.5656 44.88C71.939 44.6667 72.3256 44.4133 72.7256 44.12C73.5256 43.5067 74.219 42.9467 74.8056 42.44C75.3923 41.9333 75.779 41.16 75.9656 40.12C76.019 39.6133 75.9656 39.2133 75.8056 38.92C75.6723 38.6 75.4456 38.3067 75.1256 38.04C74.8056 37.8267 74.3656 37.7467 73.8056 37.8C73.2723 37.8267 72.7123 38.1067 72.1256 38.64C71.4856 39.2267 70.859 40.0133 70.2456 41C69.659 41.9867 69.219 43.2 68.9256 44.64C68.8723 44.9067 68.9523 45.12 69.1656 45.28C69.379 45.44 69.819 45.4533 70.4856 45.32ZM84.5488 52C84.2021 52.0267 83.8821 51.8667 83.5888 51.52C83.2954 51.1733 83.0554 50.6667 82.8688 50C82.7088 49.36 82.6288 48.6 82.6288 47.72C82.5221 46.6267 82.6154 45.24 82.9088 43.56C83.2021 41.8533 83.6421 39.9467 84.2288 37.84C84.4421 37.12 84.7488 36.24 85.1488 35.2C85.5488 34.16 85.9621 33.1333 86.3888 32.12C86.8421 31.1067 87.2421 30.2533 87.5888 29.56C87.9354 28.84 88.1488 28.44 88.2288 28.36C88.3888 28.4133 88.4688 28.2933 88.4688 28C88.4688 27.9467 88.5754 27.7467 88.7888 27.4C89.0021 27.0533 89.2021 26.68 89.3888 26.28C89.7354 25.7733 90.1488 25.28 90.6288 24.8C91.1088 24.2933 91.6021 23.8533 92.1088 23.48C92.6421 23.08 93.1221 22.8 93.5488 22.64C93.9488 22.48 94.3488 22.4 94.7488 22.4C95.2554 22.4 95.7088 22.52 96.1088 22.76C96.5354 23 96.8688 23.3333 97.1088 23.76C97.3488 24.16 97.4688 24.6133 97.4688 25.12C97.4688 25.5467 97.3754 25.96 97.1888 26.36C97.1088 26.76 96.9488 27.1867 96.7088 27.64C96.4954 28.0667 96.2688 28.4667 96.0288 28.84C95.8154 29.1867 95.6421 29.4533 95.5088 29.64C95.1621 29.8267 94.8688 29.9067 94.6288 29.88C94.3888 29.8533 94.3354 29.7467 94.4688 29.56C94.4688 29.4533 94.4954 29.32 94.5488 29.16C94.6288 29 94.6821 28.8267 94.7088 28.64C94.7088 28.5867 94.7621 28.4267 94.8688 28.16C95.0021 27.8933 95.0688 27.6267 95.0688 27.36C95.3088 26.4 95.4154 25.72 95.3888 25.32C95.3888 24.92 95.2688 24.72 95.0288 24.72C94.8954 24.6933 94.6821 24.7467 94.3888 24.88C94.0954 25.0133 93.8288 25.1733 93.5888 25.36C93.3488 25.52 93.2288 25.6667 93.2288 25.8C93.2288 25.88 93.2288 25.9333 93.2288 25.96C93.1488 25.9333 92.8954 26.16 92.4688 26.64C92.0688 27.0933 91.6154 27.6533 91.1088 28.32C90.6288 28.96 90.2288 29.5467 89.9088 30.08C89.6954 30.5333 89.4154 31.1333 89.0688 31.88C88.7221 32.6267 88.3221 33.5867 87.8688 34.76L87.5488 35.72L88.1888 35.8C88.4021 35.8267 88.7354 35.8133 89.1888 35.76C89.6421 35.68 90.0821 35.6 90.5088 35.52C91.4154 35.3867 92.0554 35.3867 92.4288 35.52C92.8021 35.6533 93.0821 35.9333 93.2688 36.36C93.5621 37 93.3488 37.44 92.6288 37.68C91.9088 37.8933 90.5354 38.0533 88.5088 38.16C88.0821 38.1067 87.7088 38.0933 87.3888 38.12C87.0954 38.12 86.8954 38.1733 86.7888 38.28C86.6821 38.3333 86.5354 38.6267 86.3488 39.16C86.1621 39.6667 85.9621 40.28 85.7488 41C85.5621 41.6933 85.4154 42.36 85.3088 43C85.0954 43.8267 84.9488 44.68 84.8688 45.56C84.7888 46.4133 84.7621 47.2133 84.7888 47.96C84.8154 48.68 84.8821 49.24 84.9888 49.64C85.1488 50.28 85.1888 50.8 85.1088 51.2C85.0554 51.6 84.8688 51.8667 84.5488 52ZM96.0294 47.24C95.9227 47.24 95.7627 47.1733 95.5494 47.04C95.3627 46.88 95.216 46.7467 95.1094 46.64C94.9227 46.4267 94.8027 46.2133 94.7494 46C94.7227 45.7867 94.7094 45.3067 94.7094 44.56C94.7094 43.7067 94.8827 42.7867 95.2294 41.8C95.576 40.7867 96.1627 39.3733 96.9894 37.56L98.3094 34.76C98.416 34.5467 98.5094 34.3867 98.5894 34.28C98.696 34.1733 98.7894 34.0667 98.8694 33.96C98.976 33.96 99.0694 33.96 99.1494 33.96C99.2294 33.96 99.2694 33.96 99.2694 33.96C99.4827 33.96 99.696 34.0933 99.9094 34.36C100.123 34.6 100.283 34.8667 100.389 35.16C100.389 35.5067 100.336 35.8667 100.229 36.24C100.149 36.6133 99.8294 37.1733 99.2694 37.92C99.0827 38.2133 98.8294 38.7067 98.5094 39.4C98.216 40.0933 98.016 40.6933 97.9094 41.2C97.8827 41.2267 97.8294 41.3467 97.7494 41.56C97.6694 41.7467 97.576 41.96 97.4694 42.2C97.3894 42.44 97.296 42.6667 97.1894 42.88L96.9894 43.76L99.6694 41C100.923 39.7467 101.936 38.8533 102.709 38.32C103.483 37.7867 104.096 37.56 104.549 37.64C105.003 37.72 105.389 38.08 105.709 38.72C105.896 39.0133 106.029 39.28 106.109 39.52C106.216 39.7333 106.283 40.0267 106.309 40.4C106.336 40.7733 106.309 41.3333 106.229 42.08V44.56C106.629 44.4533 106.949 44.36 107.189 44.28C107.429 44.1733 107.683 44.0667 107.949 43.96C108.189 43.8533 108.469 43.76 108.789 43.68C109.109 43.5733 109.509 43.5067 109.989 43.48C109.963 43.8267 109.843 44.2 109.629 44.6C109.416 44.9733 109.149 45.3333 108.829 45.68C108.509 46.0267 108.149 46.3067 107.749 46.52C107.376 46.7333 107.003 46.84 106.629 46.84C106.283 46.84 105.896 46.6667 105.469 46.32C105.043 45.9733 104.736 45.5867 104.549 45.16C104.443 44.8667 104.376 44.5467 104.349 44.2C104.349 43.8533 104.349 43.2133 104.349 42.28V40.8C104.349 40.3733 104.216 40.2533 103.949 40.44C103.709 40.6 103.509 40.7467 103.349 40.88C102.949 41.2267 102.523 41.6267 102.069 42.08C101.643 42.5333 101.203 43 100.749 43.48C99.5227 44.76 98.496 45.7067 97.6694 46.32C96.8694 46.9333 96.3227 47.24 96.0294 47.24Z" fill="black" style="fill:black;fill-opacity:1;"/>
<path d="M24.2 95.12C23.88 95.0667 23.6267 94.92 23.44 94.68C23.28 94.4133 23.0533 94.1733 22.76 93.96C22.76 93.6667 22.8267 93.2 22.96 92.56C23.12 91.8933 23.3067 91.24 23.52 90.6C23.7333 89.9333 23.9067 89.4533 24.04 89.16C24.1467 88.4667 24.32 87.8 24.56 87.16C24.8267 86.52 25.04 85.8933 25.2 85.28C25.3333 84.7467 25.4533 84.24 25.56 83.76C25.6933 83.28 25.8267 82.8133 25.96 82.36C26.0933 82.0133 26.16 81.7733 26.16 81.64C26.16 81.48 26.1867 81.36 26.24 81.28C26.32 81.1733 26.52 81.04 26.84 80.88C27.1333 80.9867 27.4 81.0533 27.64 81.08C27.9067 81.08 28.1467 81.0133 28.36 80.88C28.3867 80.8533 28.5867 80.8533 28.96 80.88C29.36 80.88 29.8 80.88 30.28 80.88C30.76 80.88 31.12 80.8667 31.36 80.84C31.7333 80.8133 32.0933 80.8533 32.44 80.96C32.7867 81.0667 33.16 81.12 33.56 81.12C34.0667 81.3067 34.5333 81.52 34.96 81.76C35.3867 82 35.72 82.2933 35.96 82.64C36.2267 82.96 36.3467 83.3733 36.32 83.88C36.2667 84.28 36.24 84.6933 36.24 85.12C36.24 85.5467 36.1333 85.9467 35.92 86.32C35.8933 86.5867 35.76 87.0267 35.52 87.64C35.28 88.2267 35.04 88.8533 34.8 89.52C34.5867 90.16 34.4533 90.6933 34.4 91.12C34.3733 91.3067 34.2933 91.4933 34.16 91.68C34.0533 91.84 34.0133 92.0267 34.04 92.24C34.0667 92.5067 34.0267 92.84 33.92 93.24C33.84 93.6133 33.7067 93.9067 33.52 94.12C33.28 94.3867 32.9867 94.4933 32.64 94.44C32.2933 94.36 31.9867 94.2 31.72 93.96C31.48 93.6933 31.3733 93.4 31.4 93.08C31.4 92.76 31.4133 92.3733 31.44 91.92C31.4933 91.44 31.5333 91.0267 31.56 90.68C31.7467 90.4933 31.84 90.32 31.84 90.16C31.8667 89.9733 31.8933 89.7867 31.92 89.6C32.16 89.04 32.4 88.3333 32.64 87.48C32.9067 86.6 33.12 85.76 33.28 84.96C33.44 84.16 33.4667 83.5867 33.36 83.24C32.9333 83.24 32.3733 83.2667 31.68 83.32C30.9867 83.3467 30.3467 83.3867 29.76 83.44C29.2 83.4667 28.8933 83.48 28.84 83.48C28.7333 83.5067 28.64 83.5733 28.56 83.68C28.48 83.76 28.44 83.84 28.44 83.92C28.3333 84.5867 28.1467 85.24 27.88 85.88C27.6133 86.4933 27.4133 87.1333 27.28 87.8C27.2533 87.9867 27.16 88.3067 27 88.76C26.84 89.1867 26.6533 89.6667 26.44 90.2C26.2533 90.7067 26.08 91.2133 25.92 91.72C25.76 92.2 25.68 92.5867 25.68 92.88C25.5733 93.0667 25.4933 93.28 25.44 93.52C25.3867 93.76 25.36 94.0667 25.36 94.44C25.3333 94.6533 25.2267 94.8 25.04 94.88C24.8533 94.96 24.5733 95.04 24.2 95.12ZM38.7459 103C38.4259 103.213 38.0926 103.2 37.7459 102.96C37.4259 102.72 37.1859 102.36 37.0259 101.88C36.8659 101.4 36.8793 100.893 37.0659 100.36C37.1193 100.2 37.1993 99.9333 37.3059 99.56C37.4126 99.2133 37.4793 98.9067 37.5059 98.64C37.5326 98.4533 37.6126 98.1333 37.7459 97.68C37.8793 97.2533 38.0259 96.8267 38.1859 96.4C38.3726 95.9733 38.5193 95.6667 38.6259 95.48C38.7859 95.2133 38.8926 94.9067 38.9459 94.56C39.0259 94.2133 39.0659 93.9467 39.0659 93.76C39.1193 93.5733 39.1859 93.36 39.2659 93.12C39.3726 92.88 39.4793 92.6933 39.5859 92.56C39.6393 92.3467 39.7193 92.12 39.8259 91.88C39.9326 91.6133 40.0526 91.3867 40.1859 91.2C40.2393 91.0133 40.2793 90.7867 40.3059 90.52C40.3593 90.2533 40.4393 90.1067 40.5459 90.08C40.5726 89.9733 40.5859 89.8667 40.5859 89.76C40.6126 89.6533 40.6659 89.5067 40.7459 89.32C40.7993 89.0267 40.9193 88.6 41.1059 88.04C41.2926 87.48 41.5193 86.8667 41.7859 86.2C42.0793 85.4267 42.2126 84.6933 42.1859 84C42.1859 83.28 41.9859 82.84 41.5859 82.68C41.3726 82.5733 41.2393 82.4267 41.1859 82.24C41.1326 82.0267 41.1593 81.8133 41.2659 81.6C41.3726 81.3867 41.5326 81.24 41.7459 81.16C41.9859 81.0533 42.2393 81.0133 42.5059 81.04C42.7993 81.0667 43.0526 81.12 43.2659 81.2C43.4793 81.2533 43.5726 81.3067 43.5459 81.36C43.5459 81.4933 43.6126 81.5733 43.7459 81.6C43.7993 81.52 43.9059 81.6133 44.0659 81.88C44.2526 82.12 44.4259 82.4 44.5859 82.72C44.7459 83.04 44.8259 83.2667 44.8259 83.4C44.7726 83.5067 44.7459 83.5733 44.7459 83.6C44.7459 83.6 44.7993 83.6 44.9059 83.6C44.9059 83.6 45.0526 83.5333 45.3459 83.4C45.6393 83.24 45.9459 83.0667 46.2659 82.88C46.6126 82.6667 46.8393 82.5067 46.9459 82.4C46.9459 82.4 47.0126 82.3733 47.1459 82.32C47.3059 82.24 47.4393 82.1467 47.5459 82.04C48.0793 81.8267 48.6526 81.7867 49.2659 81.92C49.9059 82.0533 50.4126 82.2933 50.7859 82.64C51.3193 83.3067 51.5859 83.9467 51.5859 84.56C51.6126 85.1733 51.4393 85.9467 51.0659 86.88C51.0126 87.0133 50.8926 87.24 50.7059 87.56C50.5459 87.8533 50.3859 88.1333 50.2259 88.4C50.0659 88.64 49.9859 88.76 49.9859 88.76C49.3726 89.72 48.6526 90.52 47.8259 91.16C46.9993 91.8 46.1593 92.36 45.3059 92.84C45.0393 93.0267 44.7593 93.1733 44.4659 93.28C44.1993 93.36 43.9593 93.4133 43.7459 93.44C43.5326 93.44 43.3859 93.4133 43.3059 93.36C43.0126 93.1467 42.7459 92.6933 42.5059 92C42.3726 92.3467 42.2393 92.6933 42.1059 93.04C41.9993 93.36 41.9326 93.5733 41.9059 93.68C41.8793 93.8667 41.8526 94.0267 41.8259 94.16C41.7993 94.2667 41.7326 94.36 41.6259 94.44C41.6259 94.44 41.6126 94.4933 41.5859 94.6C41.5593 94.7067 41.4659 94.8667 41.3059 95.08C41.0393 95.8533 40.7993 96.52 40.5859 97.08C40.3726 97.6667 40.1993 98.16 40.0659 98.56C39.9326 98.9867 39.8259 99.36 39.7459 99.68C39.6926 100.4 39.5459 101.107 39.3059 101.8C39.0659 102.52 38.8793 102.92 38.7459 103ZM43.5059 91.6C43.6126 91.5467 43.8393 91.4 44.1859 91.16C44.5593 90.8933 44.9726 90.5867 45.4259 90.24C45.8793 89.8667 46.2926 89.52 46.6659 89.2C47.0659 88.88 47.3326 88.64 47.4659 88.48C47.6793 88.24 47.8793 87.9867 48.0659 87.72C48.2526 87.4267 48.3993 87.1067 48.5059 86.76C48.5859 86.5467 48.6793 86.3067 48.7859 86.04C48.8926 85.7733 48.9859 85.52 49.0659 85.28C49.1726 85.0667 49.2126 84.8533 49.1859 84.64C49.1859 84.4 49.1059 84.2 48.9459 84.04C48.8393 84.0133 48.5193 84.0933 47.9859 84.28C47.4526 84.44 46.8659 84.72 46.2259 85.12C45.5859 85.4933 45.0259 85.9867 44.5459 86.6C43.9859 87.32 43.5726 88.0667 43.3059 88.84C43.0659 89.6133 42.9593 90.2667 42.9859 90.8C43.0393 91.3333 43.2126 91.6 43.5059 91.6ZM63.2631 95.92C62.9965 95.6533 62.7298 95.2933 62.4631 94.84C62.1965 94.36 61.9831 93.8133 61.8231 93.2C61.7698 92.9867 61.7431 92.6933 61.7431 92.32C61.7698 91.9467 61.7698 91.68 61.7431 91.52C61.6631 91.7067 61.5298 91.9067 61.3431 92.12C61.1831 92.3067 61.0231 92.4667 60.8631 92.6C60.7565 92.7067 60.5165 92.92 60.1431 93.24C59.7698 93.5333 59.3965 93.7733 59.0231 93.96C58.1431 94.52 57.4098 94.8267 56.8231 94.88C56.2631 94.9333 55.7298 94.64 55.2231 94C54.7965 93.6533 54.4898 93.2667 54.3031 92.84C54.1431 92.4133 54.1431 91.8267 54.3031 91.08C54.3565 90.1467 54.4898 89.24 54.7031 88.36C54.9165 87.4533 55.3565 86.2533 56.0231 84.76C56.5831 83.6667 57.0098 82.8667 57.3031 82.36C57.5965 81.8267 57.7831 81.5067 57.8631 81.4C58.2631 81.2667 58.5965 81.28 58.8631 81.44C59.1298 81.5733 59.2898 81.8267 59.3431 82.2C59.5031 82.4667 59.4765 82.92 59.2631 83.56C59.0765 84.2 58.7431 84.9867 58.2631 85.92C57.8898 86.8267 57.5431 87.7333 57.2231 88.64C56.9298 89.5467 56.7565 90.32 56.7031 90.96C56.6498 91.6 56.8098 91.9867 57.1831 92.12C57.4231 92.2533 57.8365 92.2133 58.4231 92C59.0365 91.7867 59.7165 91.2533 60.4631 90.4C61.2365 89.5467 61.9831 88.2533 62.7031 86.52C62.9165 85.9867 63.0765 85.52 63.1831 85.12C63.2898 84.6933 63.3565 84.2267 63.3831 83.72C63.3298 83.4 63.3431 83.12 63.4231 82.88C63.5298 82.6133 63.7431 82.3867 64.0631 82.2C64.1698 82.0667 64.3165 81.9467 64.5031 81.84C64.6898 81.7067 64.8098 81.7067 64.8631 81.84L65.5031 81.8C65.6098 81.7733 65.6765 81.84 65.7031 82C65.7565 82.1333 65.8498 82.2533 65.9831 82.36C66.2765 82.6 66.3565 83.12 66.2231 83.92C66.0898 84.72 65.7165 85.84 65.1031 87.28C64.5965 88.3733 64.2498 89.2 64.0631 89.76C63.9031 90.32 63.8098 90.8667 63.7831 91.4C63.7831 91.88 63.8765 92.3333 64.0631 92.76C64.2498 93.1867 64.5431 93.5733 64.9431 93.92C65.2365 94.1067 65.3965 94.32 65.4231 94.56C65.4765 94.8 65.4898 95.08 65.4631 95.4C65.4098 95.64 65.2498 95.84 64.9831 96C64.7431 96.1333 64.4631 96.2 64.1431 96.2C63.8231 96.2 63.5298 96.1067 63.2631 95.92ZM73.3078 82.56C73.7345 82.4267 74.2545 82.1467 74.8678 81.72C75.4811 81.2933 76.0811 80.8267 76.6678 80.32C77.2545 79.8133 77.6945 79.3867 77.9878 79.04C78.2545 78.7467 78.4945 78.44 78.7078 78.12C78.9478 77.8 79.2011 77.4933 79.4678 77.2C79.8945 76.7467 80.2945 76.1467 80.6678 75.4C81.0411 74.6533 81.2278 73.9733 81.2278 73.36C81.2278 73.2 81.1478 73.0667 80.9878 72.96C80.8545 72.8533 80.7211 72.8267 80.5878 72.88C80.3745 72.96 80.1611 73.0667 79.9478 73.2C79.7345 73.3067 79.5478 73.44 79.3878 73.6C79.0411 73.9467 78.6545 74.2933 78.2278 74.64C77.8011 74.96 77.4145 75.3067 77.0678 75.68C77.0411 75.7067 77.0145 75.7467 76.9878 75.8C76.9878 75.8267 76.9745 75.8667 76.9478 75.92C76.7078 76.3733 76.4411 76.8133 76.1478 77.24C75.8811 77.6667 75.6011 78.1067 75.3078 78.56C74.9078 79.2 74.5611 79.8667 74.2678 80.56C74.0011 81.2533 73.6811 81.92 73.3078 82.56ZM74.3478 85.04C74.4278 85.04 74.5078 85.04 74.5878 85.04C74.6945 85.0133 74.7878 84.9867 74.8678 84.96C75.1345 84.9867 75.3878 85.04 75.6278 85.12C75.8945 85.1733 76.1611 85.2267 76.4278 85.28C76.5611 85.52 76.7211 85.7867 76.9078 86.08C77.1211 86.3467 77.2678 86.6133 77.3478 86.88C77.4011 87.0667 77.4545 87.2667 77.5078 87.48C77.5611 87.6667 77.6011 87.8667 77.6278 88.08C77.5745 88.2133 77.5611 88.4933 77.5878 88.92C77.6411 89.3467 77.6011 89.7333 77.4678 90.08C77.3078 90.5867 77.1611 91.1067 77.0278 91.64C76.8945 92.1467 76.6811 92.6267 76.3878 93.08C76.2011 93.3733 75.9078 93.76 75.5078 94.24C75.1345 94.72 74.8011 95.0533 74.5078 95.24C74.3211 95.3467 74.1211 95.4267 73.9078 95.48C73.7211 95.5067 73.5211 95.5733 73.3078 95.68C72.9611 95.8667 72.5878 95.84 72.1878 95.6C71.8145 95.36 71.4678 95.24 71.1478 95.24C70.9078 95.24 70.6278 95.0533 70.3078 94.68C70.0145 94.3067 69.7611 93.88 69.5478 93.4C69.3611 92.92 69.2945 92.5067 69.3478 92.16C69.3745 92.0267 69.3478 91.9067 69.2678 91.8C69.2145 91.6933 69.1878 91.5733 69.1878 91.44C69.1878 90.9067 69.2011 90.28 69.2278 89.56C69.2545 88.84 69.3211 88.12 69.4278 87.4C69.5611 86.68 69.7345 86.0933 69.9478 85.64C69.7345 85.5067 69.5611 85.3333 69.4278 85.12C69.3211 84.9067 69.2011 84.6933 69.0678 84.48C69.1211 84.3467 69.1745 84.2133 69.2278 84.08C69.2811 83.9467 69.3211 83.8267 69.3478 83.72C69.5345 83.6933 69.7078 83.6667 69.8678 83.64C70.0545 83.6133 70.2411 83.5733 70.4278 83.52C70.8811 82.1333 71.4411 80.72 72.1078 79.28C72.8011 77.84 73.6278 76.4933 74.5878 75.24C75.5478 73.96 76.6545 72.92 77.9078 72.12C78.2278 71.9067 78.6145 71.68 79.0678 71.44C79.5478 71.1733 79.9878 71.08 80.3878 71.16C80.4678 71.1333 80.5478 71.1333 80.6278 71.16C80.7345 71.1867 80.8145 71.1733 80.8678 71.12C80.9211 71.1467 80.9745 71.1733 81.0278 71.2C81.0811 71.2 81.1345 71.2267 81.1878 71.28C81.3211 71.4667 81.6278 71.7333 82.1078 72.08C82.6145 72.4 83.0411 72.84 83.3878 73.4C83.6545 73.8267 83.6545 74.3333 83.3878 74.92C83.1478 75.5067 82.9478 76.0267 82.7878 76.48C82.6545 76.8533 82.4545 77.2 82.1878 77.52C81.9478 77.8133 81.7478 78.1467 81.5878 78.52C81.5345 78.68 81.4411 78.8133 81.3078 78.92C81.1745 79 81.0811 79.1333 81.0278 79.32C80.7878 79.4267 80.6145 79.5867 80.5078 79.8C80.4278 80.0133 80.2945 80.1867 80.1078 80.32C79.9211 80.48 79.7478 80.6267 79.5878 80.76C79.4545 80.8933 79.3078 81.0533 79.1478 81.24C78.8811 81.56 78.5611 81.84 78.1878 82.08C77.8411 82.2933 77.5211 82.56 77.2278 82.88C76.8011 83.0933 76.3745 83.3733 75.9478 83.72C75.5478 84.0667 75.1211 84.3067 74.6678 84.44C74.4011 84.52 74.1211 84.6267 73.8278 84.76C73.5345 84.8667 73.2545 84.9867 72.9878 85.12C72.7478 85.2267 72.5478 85.5067 72.3878 85.96C72.2545 86.3867 72.1345 86.8933 72.0278 87.48C71.9211 88.0667 71.8411 88.6267 71.7878 89.16C71.7345 89.6933 71.6945 90.08 71.6678 90.32C71.6411 90.64 71.6678 91.1333 71.7478 91.8C71.8278 92.44 71.9345 92.9067 72.0678 93.2C72.1211 93.3067 72.2411 93.4133 72.4278 93.52C72.6145 93.6267 72.7611 93.6267 72.8678 93.52C72.9478 93.44 73.0811 93.28 73.2678 93.04C73.4811 92.8 73.6811 92.56 73.8678 92.32C74.0811 92.0533 74.2145 91.8667 74.2678 91.76C74.4278 91.44 74.5878 91.08 74.7478 90.68C74.9078 90.28 75.0411 89.9067 75.1478 89.56C75.3078 88.9733 75.3478 88.4667 75.2678 88.04C75.2145 87.6133 75.1078 87.2267 74.9478 86.88C74.7878 86.5333 74.6411 86.2133 74.5078 85.92C74.3745 85.6267 74.3211 85.3333 74.3478 85.04ZM81.1353 94.72C80.922 94.5067 80.762 94.24 80.6553 93.92C80.5753 93.6 80.5486 93.28 80.5753 92.96C80.602 92.64 80.6686 92.3733 80.7753 92.16C80.7753 91.9467 80.802 91.7867 80.8553 91.68C80.9353 91.5467 80.962 91.4267 80.9353 91.32C80.9086 91.2133 80.9353 91.0267 81.0153 90.76C81.0953 90.4933 81.1753 90.24 81.2553 90C81.442 89.5733 81.642 89.0667 81.8553 88.48C82.0686 87.8667 82.2686 87.2667 82.4553 86.68C82.642 86.0933 82.802 85.5867 82.9353 85.16C83.0686 84.7333 83.1486 84.4667 83.1753 84.36C83.1753 84.04 83.3886 83.8667 83.8153 83.84C84.1353 83.7333 84.3753 83.7333 84.5353 83.84C84.6953 83.92 84.9086 84.1733 85.1753 84.6C85.3886 84.8133 85.4686 85.1333 85.4153 85.56C85.362 85.9867 85.1886 86.52 84.8953 87.16C84.7886 87.3733 84.6553 87.68 84.4953 88.08C84.362 88.48 84.2686 88.84 84.2153 89.16C84.1086 89.3733 83.9753 89.68 83.8153 90.08C83.682 90.4533 83.562 90.8133 83.4553 91.16C83.402 91.2933 83.3486 91.4933 83.2953 91.76C83.242 92 83.1753 92.2667 83.0953 92.56C83.0153 92.8267 82.9086 93.0667 82.7753 93.28C82.5353 94.3733 82.3086 95.0133 82.0953 95.2C81.9086 95.3867 81.5886 95.2267 81.1353 94.72ZM85.0153 78.48C84.882 78.3467 84.762 78.16 84.6553 77.92C84.5486 77.6533 84.482 77.4133 84.4553 77.2C84.4286 76.96 84.4553 76.84 84.5353 76.84C84.7486 76.8133 85.002 76.5867 85.2953 76.16C85.5886 75.7333 85.7086 75.36 85.6553 75.04C85.6553 74.9333 85.6953 74.84 85.7753 74.76C85.8553 74.6533 85.9486 74.5867 86.0553 74.56C86.3753 74.3467 86.682 74.32 86.9753 74.48C87.2953 74.6133 87.5886 74.8933 87.8553 75.32C88.0953 75.8267 88.162 76.2533 88.0553 76.6C87.9486 76.92 87.6553 77.3733 87.1753 77.96C86.7753 78.4933 86.402 78.7867 86.0553 78.84C85.7353 78.8933 85.3886 78.7733 85.0153 78.48ZM89.4362 94.04C89.1429 93.8533 88.8763 93.6133 88.6363 93.32C88.3963 93 88.2763 92.6 88.2763 92.12C88.2763 91.8533 88.3296 91.4 88.4363 90.76C88.5429 90.12 88.6896 89.4 88.8763 88.6C89.0629 87.8 89.2496 87.0533 89.4362 86.36C89.7029 85.88 89.9296 85.4 90.1163 84.92C90.3029 84.44 90.3963 84.1467 90.3963 84.04C90.4496 83.72 90.5163 83.3467 90.5963 82.92C90.7029 82.4933 90.8096 82.1067 90.9163 81.76C91.0229 81.4133 91.1029 81.2133 91.1563 81.16C91.2896 81.0267 91.4496 80.9467 91.6363 80.92C91.8229 80.8667 92.0096 80.8933 92.1963 81C92.4096 81.08 92.5696 81.2533 92.6763 81.52C92.9696 81.84 93.1163 82.2267 93.1163 82.68C93.1163 83.1067 92.9696 83.7467 92.6763 84.6C92.4363 85.1333 92.1963 85.76 91.9563 86.48C91.7163 87.2 91.5029 87.8667 91.3163 88.48C91.1563 89.0667 91.0629 89.4667 91.0363 89.68L90.2363 89.92C90.6896 89.4933 91.1163 89.0533 91.5163 88.6C91.9163 88.12 92.2096 87.7467 92.3963 87.48C92.8496 86.8667 93.2363 86.36 93.5563 85.96C93.9029 85.5333 94.3429 85.0267 94.8763 84.44C95.4096 83.8267 95.9296 83.4533 96.4363 83.32C96.9696 83.16 97.3829 83.08 97.6763 83.08C98.2629 83.1867 98.7296 83.4933 99.0763 84C99.4496 84.48 99.6896 85.2 99.7963 86.16C99.7963 86.5333 99.7563 86.9733 99.6763 87.48C99.6229 87.9867 99.5963 88.24 99.5963 88.24C99.5963 88.24 99.8096 87.96 100.236 87.4C100.69 86.84 101.29 86.2267 102.036 85.56C102.543 85.1867 103.036 84.9733 103.516 84.92C103.996 84.84 104.423 85 104.796 85.4C105.49 85.7733 105.943 86.3467 106.156 87.12C106.37 87.8667 106.423 88.8267 106.316 90C106.236 90.6933 106.223 91.2133 106.276 91.56C106.33 91.88 106.41 92.2 106.516 92.52C106.73 92.6267 106.77 92.8533 106.636 93.2C106.503 93.52 106.343 93.68 106.156 93.68C105.89 93.68 105.583 93.6267 105.236 93.52C104.916 93.4133 104.623 93.24 104.356 93C104.116 92.7333 103.996 92.3733 103.996 91.92V89.44C103.996 88.8533 103.97 88.3733 103.916 88C103.89 87.6267 103.823 87.4 103.716 87.32C103.423 87.16 102.996 87.3333 102.436 87.84C101.876 88.3467 101.276 89.0267 100.636 89.88C99.9963 90.7333 99.3963 91.6133 98.8363 92.52C98.3296 93.3467 98.0096 93.8267 97.8763 93.96C97.7696 94.0667 97.5696 94.0267 97.2763 93.84C96.6896 93.6533 96.3163 93.4 96.1563 93.08C96.0229 92.7333 96.0096 92.3467 96.1163 91.92C96.2496 91.4667 96.4096 90.8533 96.5963 90.08C96.8096 89.3067 97.0096 88.56 97.1963 87.84C97.3829 87.0933 97.5029 86.56 97.5563 86.24C97.4496 86.0267 97.2629 85.96 96.9963 86.04C96.7563 86.0933 96.5029 86.2133 96.2363 86.4C95.9163 86.6133 95.5296 87.0133 95.0763 87.6C94.6229 88.1867 94.1563 88.8667 93.6763 89.64C93.3563 90.1467 93.0229 90.6533 92.6763 91.16C92.3296 91.64 92.0096 92.0667 91.7163 92.44C91.4229 92.8133 91.1696 93.0933 90.9563 93.28C90.5829 93.8667 90.3296 94.1867 90.1963 94.24C90.0629 94.2933 89.8096 94.2267 89.4362 94.04Z" fill="black" style="fill:black;fill-opacity:1;"/>
<path d="M5.86802 53.6648L121 20" stroke="#FF0000" style="stroke:#FF0000;stroke:color(display-p3 1.0000 0.0000 0.0000);stroke-opacity:1;" stroke-width="2"/>
<path fill-rule="evenodd" clip-rule="evenodd" d="M12.769 60.8294C12.1965 61.5979 11.0081 61.645 10.3695 60.9244L9.3979 59.8281C8.91684 59.2852 8.06091 59.2135 7.48613 59.6678C6.91135 60.1221 6.83538 60.9305 7.31645 61.4733L8.28804 62.5696C10.0715 64.582 13.3903 64.4506 14.989 62.3042L15.038 62.2385C15.612 61.4678 16.8187 61.46 17.4039 62.2231C19.0737 64.4009 22.5111 64.3878 24.1678 62.2063C24.7405 61.4523 25.9559 61.4437 26.547 62.2144C28.2065 64.3788 31.6451 64.4309 33.3424 62.2588L33.4287 62.1482C34.0039 61.4121 35.1738 61.4246 35.7312 62.1729C37.3718 64.3755 40.8207 64.3745 42.4754 62.1957C43.045 61.4457 44.24 61.4447 44.812 62.1979C46.4646 64.3739 49.9107 64.3878 51.5623 62.192C52.1172 61.4542 53.3144 61.4394 53.8995 62.2025C55.5648 64.3744 59.0254 64.3918 60.6987 62.2096C61.2851 61.4448 62.488 61.4563 63.0522 62.2063C64.6951 64.3906 68.1213 64.4126 69.7956 62.2496L69.8573 62.1699C70.4355 61.423 71.6185 61.4306 72.1858 62.1848C73.836 64.3788 77.2821 64.3829 78.9413 62.198C79.5129 61.4455 80.707 61.4438 81.2825 62.2016C82.9371 64.3803 86.3804 64.3851 88.03 62.192C88.5822 61.4578 89.7831 61.4407 90.371 62.2074C92.0284 64.369 95.4853 64.3944 97.1471 62.2063C97.7227 61.4483 98.9123 61.4567 99.4707 62.1992C101.122 64.3941 104.565 64.3714 106.213 62.2016C106.787 61.445 107.996 61.4424 108.575 62.1965C110.255 64.3878 113.729 64.3528 115.386 62.1706C115.986 61.3806 117.215 61.3662 117.822 62.1016L118.573 63.0102C119.034 63.5683 119.887 63.6677 120.478 63.2323C121.069 62.7969 121.174 61.9915 120.713 61.4334L119.962 60.5247C118.214 58.4091 114.812 58.5281 113.18 60.6766C112.591 61.4533 111.354 61.4509 110.773 60.6931C109.108 58.5217 105.662 58.5292 104.007 60.7076C103.432 61.4655 102.242 61.4571 101.684 60.7147C100.033 58.5198 96.5894 58.5424 94.9415 60.7122C94.3743 61.4591 93.1551 61.4678 92.5694 60.7039C90.9205 58.5535 87.4735 58.5054 85.8172 60.7075C85.2521 61.4588 84.0624 61.4637 83.4881 60.7076C81.8337 58.5292 78.3941 58.5204 76.7357 60.704C76.1608 61.461 74.9683 61.4578 74.3986 60.7004C72.7583 58.5196 69.3377 58.4976 67.6661 60.6571L67.6044 60.7369C67.0235 61.4872 65.8349 61.4796 65.265 60.7218C63.61 58.5215 60.1613 58.5399 58.5003 60.7062C57.9186 61.4648 56.6875 61.468 56.0979 60.699C54.4463 58.545 51.0031 58.509 49.3495 60.7075C48.7864 61.4561 47.5939 61.4628 47.0176 60.7039C45.3652 58.5281 41.9247 58.5227 40.2698 60.7017C39.6969 61.4561 38.5097 61.4478 37.9512 60.6981C36.3277 58.5185 32.9202 58.482 31.2447 60.6262L31.1584 60.7367C30.5692 61.4907 29.3443 61.4921 28.7454 60.711C27.0824 58.5422 23.6294 58.5171 21.9622 60.7123C21.3827 61.4753 20.1828 61.4768 19.6023 60.7197C17.9243 58.5313 14.464 58.5537 12.818 60.7636L12.769 60.8294Z" fill="#FF0000" style="fill:#FF0000;fill:color(display-p3 1.0000 0.0000 0.0000);fill-opacity:1;"/>
</svg>
